# xmcd
#
# Track frame offsets: 
#        150
#        19160
#        36677
#        52840
#        66595
#        84600
#        100355
#        126152
#        144182
#        157850
#        170997
#        191917
#        202050
#
# Disc length: 3074 seconds
#
# Revision: 2
# Processed by: cddbd v1.5.2PL0 Copyright (c) Steve Scherf et al.
# Submitted via: ExactAudioCopy v0.99pb4
#
DISCID=c30c000d
DTITLE=Various Artist - Kissin' Time - A Tribute To Kiss
DYEAR=1996
DGENRE=Hard Rock
TTITLE0=Transport League - War Machine
TTITLE1=Blakk Totem - Calling Dr.Love
TTITLE2=Million - Deuce
TTITLE3=Kisses From the Past - Flaming Youth
TTITLE4=Mrs Hippie - I Want You
TTITLE5=Breakfast Conspiracy - I Stole Your Love
TTITLE6=Snowy Shaw - The Oath
TTITLE7=Rock Soldiers - Larger Than Life
TTITLE8=Mummy Dearest - New York Groove
TTITLE9=Dressed To Kill - C'mon And Love Me
TTITLE10=Zodiac's Fate - Makin 'Love
TTITLE11=Kiss Of Thunder - Let Me Go, Rock'n'Roll
TTITLE12=Clean Cut Clan And Mobile Whorehouse - Almost Human
EXTD=YEAR: 1996
EXTT0=
EXTT1=
EXTT2=
EXTT3=
EXTT4=
EXTT5=
EXTT6=
EXTT7=
EXTT8=
EXTT9=
EXTT10=
EXTT11=
EXTT12=
PLAYORDER=
